<svg xmlns="http://www.w3.org/2000/svg" height="50"  viewBox="0 0 793.87 520.26"><defs><style>.cls-1{fill:#1ad0b2;}.cls-2{fill:#fff;}</style></defs><title>Recurso 2</title><g id="Capa_2" data-name="Capa 2"><g id="Layer_1" data-name="Layer 1"><path class="cls-1" d="M425.32,115.86a91.79,91.79,0,0,1,36.05-48.07A93.18,93.18,0,0,1,484,56.51L343.18,0,322.44,51.68A92.85,92.85,0,0,1,410,115.86c1.39,4.34,7.65,28.9,7.65,28.9S423.93,120.2,425.32,115.86Z"/><path class="cls-1" d="M523.63,261.51l-92.8-87.63.6,20.91H412.51v6h19.1l1,33.47H412.51v6h20.24l1,33.48h-21.2v6h21.38l1,33.48H412.51v6H435l1,33.48H412.51v6h23.66l.7,24.27h-1a110.28,110.28,0,0,0,34.38-2.2q39.24-9.35,55.2-49.09,11.57-28.82,4.52-54.21A82.63,82.63,0,0,0,523.63,261.51Z"/><path class="cls-1" d="M449.72,162.66a91.89,91.89,0,0,1,64,35,92.94,92.94,0,0,1,15.06,27.85,78.89,78.89,0,0,0,11.8-7.37q17.49-13.24,26.61-36a87,87,0,0,0,5.38-19.48L443.29,162Z"/><path class="cls-1" d="M561.32,112.15q-14.57-23.1-45.59-40.69l-84.85,78.45,11.77-9a92.7,92.7,0,0,1,130.42,17.6Q575.3,134.37,561.32,112.15Z"/><path class="cls-1" d="M392.7,140.9l11.77,9L315.89,68l-26.67,66.44A92.91,92.91,0,0,1,392.7,140.9Z"/><path class="cls-1" d="M302.78,268.16a92.73,92.73,0,0,1,82.85-105.5l6.43-.63-114.15.6L220.49,305.68l152,61q13.64,5.47,26.23,9.14l5.83-201.94L303,269.74Z"/><path class="cls-2" d="M87.66,474.42q5.07,6.63,5.07,16.47,0,13.58-10.44,20.95t-30.41,7.38H0V414.86H48.9q18.48,0,28.47,7.23t10,19.9a26.18,26.18,0,0,1-3.57,13.72A24.47,24.47,0,0,1,74,465,27.58,27.58,0,0,1,87.66,474.42ZM19.38,430.07v28.77H46.81q10.14,0,15.58-3.65a12,12,0,0,0,5.44-10.66q0-7.15-5.44-10.81t-15.58-3.65ZM73.2,489q0-15.06-22.51-15.06H19.38V504H50.69Q73.19,504,73.2,489Z"/><path class="cls-2" d="M125.68,515a38,38,0,0,1-15.14-14.53,43.48,43.48,0,0,1,0-42.12,38.2,38.2,0,0,1,15.14-14.46,48.3,48.3,0,0,1,43.68,0,38.23,38.23,0,0,1,15.13,14.46,43.48,43.48,0,0,1,0,42.12A38,38,0,0,1,169.36,515a45.37,45.37,0,0,1-21.92,5.22A45,45,0,0,1,125.68,515Zm38.76-17.59q6.7-6.85,6.71-18t-6.71-18a22.77,22.77,0,0,0-17-6.85q-10.29,0-16.92,6.85t-6.63,18q0,11.19,6.63,18t16.92,6.86A22.74,22.74,0,0,0,164.44,497.45Z"/><path class="cls-2" d="M222.13,515a38.19,38.19,0,0,1-15.35-14.53,42.93,42.93,0,0,1,0-42.12,38.57,38.57,0,0,1,15.28-14.46,46.5,46.5,0,0,1,22.28-5.22A43,43,0,0,1,265,443.48a31,31,0,0,1,13.35,13.72L264,465.55a22.65,22.65,0,0,0-8.57-8.27,23.42,23.42,0,0,0-11.25-2.76q-10.44,0-17.3,6.78T220,479.41q0,11.34,6.79,18.12t17.37,6.78a23.42,23.42,0,0,0,11.25-2.76,22.65,22.65,0,0,0,8.57-8.27l14.32,8.35a32.31,32.31,0,0,1-13.5,13.79,42.05,42.05,0,0,1-20.5,4.84A46.53,46.53,0,0,1,222.13,515Z"/><path class="cls-2" d="M351.76,447.14q9.32,8.42,9.32,25.42v46.66H343.49v-9.69a21.66,21.66,0,0,1-9.77,8,38.17,38.17,0,0,1-15.28,2.76,37.62,37.62,0,0,1-15.66-3,24.23,24.23,0,0,1-10.36-8.5,21.61,21.61,0,0,1-3.65-12.3q0-10.74,8-17.22t25.12-6.48h20.57v-1.2q0-8.34-5-12.82t-14.84-4.47a42.84,42.84,0,0,0-13.19,2.09,32.49,32.49,0,0,0-11,5.81l-7.3-13.57a45.2,45.2,0,0,1,15-7.3,67,67,0,0,1,18.64-2.54Q342.44,438.71,351.76,447.14Zm-17,56.35a17.39,17.39,0,0,0,7.68-9.17v-9.24H323.21q-16.09,0-16.1,10.58a9.52,9.52,0,0,0,4,8.06q4,3,11.18,3A24,24,0,0,0,334.76,503.49Z"/><path class="cls-2" d="M390.6,517.73a47.59,47.59,0,0,1-14.76-6.41L383,497.16a45.88,45.88,0,0,0,12.9,5.73,53.24,53.24,0,0,0,14.83,2.17q16.69,0,16.7-8.8,0-4.17-4.25-5.81a72.48,72.48,0,0,0-13.64-3.13,112,112,0,0,1-16-3.43,24.6,24.6,0,0,1-10.73-6.79q-4.54-4.83-4.55-13.49,0-11.33,9.47-18.11t25.57-6.79a74,74,0,0,1,16.4,1.87,45.86,45.86,0,0,1,13.41,5l-7.15,14.17a44.1,44.1,0,0,0-22.81-6q-8.21,0-12.45,2.46t-4.25,6.49c0,3,1.51,5.09,4.55,6.33s7.73,2.41,14.09,3.51A108.71,108.71,0,0,1,430.7,476a24.7,24.7,0,0,1,10.51,6.56q4.4,4.63,4.4,13.12,0,11.19-9.69,17.9t-26.39,6.7A71.22,71.22,0,0,1,390.6,517.73Z"/><path class="cls-2" d="M466.48,414.86H509q16.54,0,29.22,6.63A48.45,48.45,0,0,1,557.87,440a55.73,55.73,0,0,1,0,54.12,48.36,48.36,0,0,1-19.68,18.48q-12.68,6.64-29.22,6.64H466.48Zm41.89,94.82q13.73,0,24-5.44a39.62,39.62,0,0,0,16-15.06,46.13,46.13,0,0,0,0-44.28,39.62,39.62,0,0,0-16-15.06q-10.29-5.43-24-5.44H477.51v85.28Z"/><path class="cls-2" d="M653.58,491.34H595.44l-12.53,27.88H571.43l47.71-104.36H630l47.71,104.36H666.1Zm-4-8.94-25-56.06-25,56.06Z"/><path class="cls-2" d="M711.05,513.18a50.62,50.62,0,0,1-19.68-19,55.52,55.52,0,0,1,0-54.26,50.62,50.62,0,0,1,19.68-19,60.46,60.46,0,0,1,56.06-.08,50.79,50.79,0,0,1,19.6,19,55.28,55.28,0,0,1,0,54.42,50.72,50.72,0,0,1-19.6,19,60.46,60.46,0,0,1-56.06-.08Zm50.47-8.5a40.47,40.47,0,0,0,15.65-15.5,46.06,46.06,0,0,0,0-44.28,40.47,40.47,0,0,0-15.65-15.5,47.68,47.68,0,0,0-44.8,0,40.82,40.82,0,0,0-15.81,15.5,45.64,45.64,0,0,0,0,44.28,40.82,40.82,0,0,0,15.81,15.5,47.68,47.68,0,0,0,44.8,0Z"/></g></g></svg>
