<?xml version="1.0" standalone="no"?>
<!DOCTYPE svg PUBLIC "-//W3C//DTD SVG 20010904//EN"
 "http://www.w3.org/TR/2001/REC-SVG-20010904/DTD/svg10.dtd">
<svg version="1.0" xmlns="http://www.w3.org/2000/svg"
 width="282.000000pt" height="282.000000pt" viewBox="0 0 282.000000 282.000000"
 preserveAspectRatio="xMidYMid meet">
<metadata>
Created by potrace 1.14, written by Peter Selinger 2001-2017
</metadata>
<g transform="translate(0.000000,282.000000) scale(0.100000,-0.100000)"
fill="#000000" stroke="none">
<path d="M1015 2598 c-10 -24 -18 -45 -19 -48 -2 -11 -78 -196 -86 -212 -13
-23 -7 -25 75 -33 39 -4 72 -11 73 -16 2 -5 13 -9 24 -9 26 0 110 -42 167 -85
131 -96 184 -186 247 -418 16 -60 23 -66 29 -25 2 12 9 41 15 63 13 48 20 77
24 90 6 25 59 135 66 135 3 0 13 12 21 27 8 16 28 42 44 58 41 41 139 115 153
115 7 0 12 5 12 10 0 6 8 10 18 10 10 0 26 6 36 13 17 13 16 15 -15 27 -19 7
-52 21 -74 31 -23 10 -53 21 -68 24 -15 4 -27 11 -27 16 0 5 -8 9 -17 9 -24 0
-83 23 -83 32 0 4 -6 8 -12 8 -14 0 -156 53 -248 93 -92 40 -316 127 -326 127
-6 0 -19 -19 -29 -42z"/>
<path d="M846 2176 c-8 -20 -16 -40 -17 -44 0 -4 -10 -25 -22 -47 -11 -22 -19
-40 -18 -40 3 0 -3 -16 -55 -145 -23 -58 -40 -107 -38 -110 3 -2 19 3 37 12
29 15 50 23 69 27 4 1 25 8 47 16 61 21 270 14 331 -12 8 -3 17 -7 20 -8 55
-21 70 -28 70 -36 0 -5 8 -9 18 -9 10 0 23 -5 30 -12 6 -6 15 -9 18 -5 4 4 -4
16 -17 28 -13 11 -69 62 -123 112 -54 51 -113 105 -130 120 -17 16 -56 52 -86
80 -31 29 -70 65 -87 81 l-32 28 -15 -36z"/>
<path d="M2104 2159 c-26 -29 -166 -159 -171 -159 -2 0 -23 -19 -47 -42 -24
-24 -86 -83 -139 -132 -53 -50 -94 -92 -92 -95 3 -2 15 5 28 16 21 19 91 57
147 80 57 24 114 34 198 34 173 1 302 -53 431 -178 38 -38 71 -57 58 -35 -3 4
-8 38 -12 77 -4 42 -18 94 -35 132 -16 35 -28 64 -27 66 8 12 -155 171 -222
217 -68 45 -89 49 -117 19z"/>
<path d="M1347 1753 c-4 -3 2 -13 14 -21 26 -18 32 -12 9 10 -9 10 -20 15 -23
11z"/>
<path d="M621 1601 c-7 -4 -14 -14 -15 -22 -2 -8 -13 -36 -25 -64 -13 -27 -24
-54 -25 -60 -2 -5 -8 -21 -13 -35 -6 -14 -20 -47 -30 -75 -11 -27 -24 -59 -28
-70 -4 -11 -7 -23 -7 -27 1 -5 -2 -8 -6 -8 -5 0 -9 -6 -9 -12 0 -7 -10 -33
-21 -57 -12 -25 -22 -48 -22 -52 0 -4 -10 -29 -22 -56 -11 -26 -22 -52 -24
-58 -1 -5 -8 -23 -15 -40 -7 -16 -13 -32 -13 -35 -5 -18 -61 -157 -69 -167 -5
-7 -13 -28 -17 -48 -7 -29 -5 -35 9 -35 9 0 21 -4 27 -8 5 -5 70 -33 144 -62
74 -29 140 -56 145 -60 6 -4 31 -13 58 -21 26 -7 47 -17 47 -21 0 -4 11 -8 25
-8 14 0 25 -4 25 -10 0 -5 6 -10 13 -10 10 0 305 -115 385 -150 12 -6 33 -14
47 -20 14 -5 35 -14 48 -19 12 -5 36 -14 52 -19 17 -6 39 -14 50 -18 32 -12
55 -12 56 0 3 22 6 134 13 376 4 135 9 308 11 385 13 379 14 505 5 505 -6 0
-50 -38 -98 -84 -48 -46 -110 -106 -139 -132 -192 -181 -302 -285 -346 -328
-45 -43 -52 -46 -58 -30 -8 22 -3 180 6 195 4 5 8 21 11 35 7 36 42 111 78
163 35 52 118 141 132 141 5 0 16 9 24 20 8 11 22 20 32 20 10 0 18 3 18 8 0
10 50 32 72 32 10 0 18 5 18 10 0 6 10 10 23 11 12 0 38 7 57 14 31 12 -5 14
-291 14 -179 0 -331 -4 -338 -8z"/>
<path d="M1795 1590 c159 -43 306 -151 370 -273 11 -20 23 -37 28 -37 4 0 6
-4 3 -8 -3 -5 4 -23 14 -40 18 -29 22 -31 42 -20 12 7 27 18 33 23 7 6 27 24
46 40 19 17 48 48 65 70 31 39 89 145 80 145 -3 0 2 16 10 35 7 19 14 45 14
58 l0 23 -387 1 -388 2 70 -19z"/>
<path d="M1599 1503 c0 -10 -1 -36 -2 -58 l-2 -40 -55 -3 c-51 -3 -75 -16 -64
-34 3 -4 32 -8 65 -8 l59 0 1 -52 c0 -29 2 -77 3 -105 2 -33 -1 -53 -8 -54 -6
0 -29 0 -51 0 -47 2 -70 -11 -62 -32 4 -11 19 -14 56 -13 28 2 55 0 60 -3 11
-7 18 -187 8 -197 -4 -4 -33 -8 -65 -8 -51 -1 -57 -3 -60 -23 -3 -22 0 -23 66
-23 l70 0 1 -105 2 -105 -75 0 c-69 0 -74 -1 -69 -20 5 -18 14 -20 74 -20 59
0 69 -3 70 -17 0 -10 2 -57 3 -105 l2 -88 -74 0 c-70 0 -73 -1 -70 -22 3 -21
8 -23 70 -23 37 0 69 -3 72 -6 3 -3 6 -35 7 -73 2 -59 5 -69 23 -75 22 -9 23
-9 126 3 222 26 375 158 445 386 20 66 29 209 15 259 -5 20 -10 39 -10 43 -1
4 -8 25 -16 45 -15 37 -44 67 -282 291 -62 59 -159 151 -215 205 -56 53 -105
97 -109 97 -5 0 -8 -8 -9 -17z"/>
</g>
</svg>
